inDegrees=yes
name=ik_CORRECTED_MT_2026-09-08_17h41_01210270-000-000_orientations
DataType=double
version=3
OpenSimVersion=4.5
endheader
time	pelvis_tilt	pelvis_list	pelvis_rotation	pelvis_tx	pelvis_ty	pelvis_tz	hip_flexion_r	hip_adduction_r	hip_rotation_r	knee_angle_r	knee_angle_r_beta	ankle_angle_r	subtalar_angle_r	mtp_angle_r	hip_flexion_l	hip_adduction_l	hip_rotation_l	knee_angle_l	knee_angle_l_beta	ankle_angle_l	subtalar_angle_l	mtp_angle_l	lumbar_extension	lumbar_bending	lumbar_rotation	arm_flex_r	arm_add_r	arm_rot_r	elbow_flex_r	pro_sup_r	wrist_flex_r	wrist_dev_r	arm_flex_l	arm_add_l	arm_rot_l	elbow_flex_l	pro_sup_l	wrist_flex_l	wrist_dev_l
85.375	4.085702360033542	2.195745848318439	-1829.473014270195	0	0.9399999999999999	0	19.60356390192221	1.68957344366958	-11.17071240493256	-5.223477361210274	-0.09116687835650442	-10.7517250649139	0	0	-5.486085008306381	-4.412274976003475	-12.10820252413735	13.40635060089921	0.2339849586624115	-14.13424799187	0	0	-3.474620239046715	-7.95824428328125	-0.4741684106503005	-11.588337240445	1.024535843326722	-2.653361638350944	1.361620452971936	45.00000025534017	0	0	21.02776937729003	-5.145499915464827	0.6848392794906119	6.634261202285392	45.00000025534017	0	0
85.40000000000001	4.382740441856503	1.969698257804742	-1829.316909629229	0	0.9399999999999999	0	17.21357912505487	0.3115424795287717	-10.42206507825232	-8.132439696362878	-0.1419378489214201	-15.64082234806854	0	0	-2.384888238939636	-7.466951718613355	-11.66543213249116	20.43999173309419	0.3567451548229156	-25.65790578175854	0	0	-3.461975352272777	-7.253843421202555	-0.9700139092566304	-11.60778947068953	1.534407775767824	-3.741267586420989	1.222062661315888	45.00000025534017	0	0	19.67342938467831	-4.653684425216941	1.826684539709839	7.022484110020392	45.00000025534017	0	0
85.425	5.190537377111972	0.8059481350768437	-1829.342135688642	0	0.9399999999999999	0	16.52011900157529	0.7605137348324286	-10.58744792529914	-5.200091425561401	-0.09075871678077206	-17.62509172406243	0	0	0.0685971938902231	-10.45342020212947	-9.687011258027779	27.72490774725403	0.4838909250012667	-32.98270489291412	0	0	-4.220270414185886	-6.040124047656182	-1.15490687197976	-11.44936834137729	1.794916914026912	-5.187788909806135	0.8173646234547532	45.00000025534017	0	0	18.06972029802828	-4.337401338624245	2.818156929903485	6.971656491627485	45.00000025534017	0	0
85.45	5.479967067628075	-1.186528359245246	-1830.248984242938	0	0.9399999999999999	0	15.09081998138259	2.516193237854826	-9.030418495303035	-2.92614705933561	-0.05107090058295627	-18.26388404496576	0	0	2.108403701272604	-13.3406301993562	-8.539389859885892	34.9765031246755	0.6104551403596722	-35.67626605800046	0	0	-4.781601281633824	-3.747823124212039	-0.7372440476011214	-11.04173377719608	1.149705974335726	-6.323668868471667	0.5076398119168644	45.00000025534017	0	0	16.23874969580175	-3.816348392510683	2.677708016787473	6.139761586661327	45.00000025534017	0	0
85.47499999999999	1.559159056600386	-0.6800141322642881	-1832.729234356739	0	0.9399999999999999	0	18.20378129659995	5.162517133656527	-8.397227929183606	-0.2711130658342004	-0.004731815643982945	-16.58156505371613	0	0	8.641222796121449	-16.6792303743838	-8.240674788384574	42.23076230180466	0.7370658477935905	-41.94786380210661	0	0	-0.7823113288951196	-1.315442934219572	1.109992526624763	-10.06034446574389	-0.1421746915739696	-7.14785571786133	0.4045546761755219	45.00000025534017	0	0	14.26619491853485	-2.910550604121801	2.020243927959348	5.122671649272895	45.00000025534017	0	0
85.5	-0.1224022109738429	-0.08406377892623691	-1834.674576460036	0	0.9399999999999999	0	18.60599179802085	6.035448217769848	-8.760554346578719	1.527256084958611	0.02665564720364601	-14.53145280263149	0	0	13.8203980961118	-17.79298117927724	-6.655947255396833	49.37583058391625	0.8617708145962529	-43.22405925456477	0	0	0.3484642201198287	-0.04685341159870218	2.368394191719161	-7.972024335316802	-1.788114309803457	-7.389866811154896	0.4080752738380327	45.00000025534017	0	0	12.91139551114947	-2.124966469644323	1.145970468897219	4.400677618765601	45.00000025534017	0	0
85.52500000000001	2.083572146432349	-1.314646978550066	-1835.563861989606	0	0.9399999999999999	0	14.69005500907091	5.602592754512051	-9.744694269572133	2.735508753487968	0.04774363446549097	-13.36330773658574	0	0	14.56867613008359	-16.62181401262584	-5.733302044567901	56.21757600400137	0.9811817987599808	-36.32507685828741	0	0	-2.396106570565006	0.1759915724823134	2.691801898103967	-6.3281476053828	-3.454452180728889	-7.21938927602312	0.5625797994348395	45.00000025534017	0	0	11.19609932085057	-1.688667857939496	0.3673559968235878	3.857613587862461	45.00000025534017	0	0
85.55	2.519915164912218	-1.066014029869972	-1836.509854320562	0	0.9399999999999999	0	13.26496535633468	5.434320397817943	-9.290766831520221	3.526965352264901	0.06155715800078417	-12.24157853137786	0	0	17.68156576192604	-14.92032053799054	-4.167220933988264	63.78924790241994	1.113332403268114	-26.45214804631871	0	0	-2.468995182049745	0.1747225556426965	2.935345410519419	-5.11736651812788	-5.441286251710824	-6.776151530596829	0.8516989611388993	45.00000025534017	0	0	9.254581031965916	-1.363854869527541	-0.3315647221515485	3.241545260020523	45.00000025534017	0	0
85.575	2.581874546496596	-1.357604545318696	-1837.411610826247	0	0.9399999999999999	0	11.70719852533011	6.174402468593102	-7.364450663199064	3.554873500230531	0.06204424707091817	-11.2604116470689	0	0	21.01037416837488	-13.47825335803168	-1.938193711179302	70.82628535207036	1.236151876350659	-16.79014816498637	0	0	-2.151831461347112	0.6885951934112308	3.029513433483433	-4.242243989046163	-7.545131058203141	-6.29740629337684	1.065643021487062	45.00000025534017	0	0	7.069902817544142	-1.2978610837358	-0.643051182918198	2.345487033360382	45.00000025534017	0	0
85.59999999999999	3.413009382182673	-3.347668087834338	-1837.943384783645	0	0.9399999999999999	0	8.429017030982127	7.436670637360502	-5.967072594225036	3.324451468751571	0.05802262395247629	-10.34314928457274	0	0	22.65672495736648	-12.69029400271974	0.9593381970371933	76.27413712729611	1.331234826988966	-7.283203198395603	0	0	-3.587654130872528	1.881175667049934	2.873052757112493	-2.934911409467545	-9.610600586568802	-6.187610198571992	1.022535455465876	45.00000025534017	0	0	5.238774868192435	-1.613144922299846	-0.3860655077596943	1.223607327743982	45.00000025534017	0	0
85.625	3.009785832337	-4.750923889030048	-1838.462256602401	0	0.9399999999999999	0	6.516599315223957	8.983581443073943	-5.643317261799224	3.157570186338761	0.05510999611442224	-9.432920382302683	0	0	25.11747158559424	-11.88160304017794	3.50551188620908	79.85242871445837	1.393687796781361	2.416203671480649	0	0	-4.212501079651445	3.12493603587692	2.756935500336686	-0.7425911841787501	-11.50723788272398	-6.455108463389438	0.8431245067822936	45.00000025534017	0	0	3.871517973305174	-2.206722170880943	0.002243090336861974	0.463398867159982	45.00000025534017	0	0
85.65000000000001	1.223674696598217	-4.38570889262604	-1839.678678310012	0	0.9399999999999999	0	6.736914865584298	10.15425425063555	-4.662384231630575	3.002983520025587	0.05241194980757555	-8.59197590326993	0	0	28.93705393418653	-11.72196028786289	4.820118944625097	81.42181091044907	1.421078683323578	11.22512256392111	0	0	-3.556078344297372	3.725710807646395	3.172783907070948	2.470755432416631	-13.29325869203285	-6.727490344033303	0.7368393738626879	45.00000025534017	0	0	3.117446447349851	-2.916370668175121	-0.1029239923852551	0.231948288261139	45.00000025534017	0	0
85.675	1.805160905735206	-4.971528376504048	-1840.842931123212	0	0.9399999999999999	0	4.689927503611981	10.48378001599854	-3.247681319687144	2.969632036146194	0.05182985660345435	-7.840400934579709	0	0	29.29622118172862	-11.15658316853762	5.205790077460756	80.59016928677384	1.406563798793814	18.19751662155027	0	0	-4.36785324251784	3.506583317324159	3.357447467823997	4.664024729044766	-14.84276938995212	-6.775042784237582	0.8817871656699805	45.00000025534017	0	0	1.458056991200471	-3.716649349873973	-1.053215165006492	0.1498860339792335	45.00000025534017	0	0
85.7	3.903808490255703	-6.322684851514326	-1842.163581242964	0	0.9399999999999999	0	1.065973654524195	10.25101411852064	-2.107732589198665	3.121152380457929	0.05447438549544958	-7.079982076262322	0	0	27.1863482329508	-10.2080819113469	4.571653330899067	77.32027301748025	1.349493342695961	23.26138696026289	0	0	-6.328537645744778	2.96289770333838	3.549399035122626	6.179331776010556	-16.38319702479378	-6.411935937875558	1.286438572309484	45.00000025534017	0	0	-0.6164249825682557	-4.295467239227954	-2.687640505403889	0.1113550151960672	45.00000025534017	0	0
85.72499999999999	4.035260930214667	-5.926695029403969	-1844.107650168356	0	0.9399999999999999	0	0.1844651504165457	9.893426245219999	-1.112593531681481	3.473406101579273	0.06062237273141893	-6.36794517393101	0	0	27.51823414762649	-9.974354551825684	3.4311258204256	72.80903846345471	1.270757446398478	26.95053701072137	0	0	-5.84117260918059	2.57713690562104	4.10378247242013	7.72193803046183	-17.87379856307504	-5.506499300850369	1.71729994981319	45.00000025534017	0	0	-2.445300922193644	-4.567836020360416	-4.370332796705346	0.09170764765586852	45.00000025534017	0	0
